<svg width="830" height="135" viewBox="0 0 830 135" fill="none" xmlns="http://www.w3.org/2000/svg">
<g clip-path="url(#clip0_632_6287)">
<rect width="830" height="135" rx="14" fill="#162930"/>
<rect width="830" height="135" rx="14" fill="#142227" fill-opacity="0.4"/>
<rect width="830" height="135" rx="14" fill="url(#paint0_radial_632_6287)" fill-opacity="0.2"/>
<rect width="830" height="135" rx="14" fill="url(#paint1_radial_632_6287)" fill-opacity="0.2"/>
<path fill-rule="evenodd" clip-rule="evenodd" d="M39.0098 30.8346L28 30.835V25.123H39.0098V30.835H44.754V41.8771H39.0098V36.5471C36.093 36.5979 33.7442 38.9647 33.7442 41.8771H28C28 35.8103 32.9205 30.8862 39.0098 30.835V30.8346Z" fill="#A0E4FF"/>
<path d="M69.4139 42H65.4379L64.0379 37.94H58.1859L56.7579 42H52.9779L59.0259 25.368H63.3659L69.4139 42ZM63.0859 35L61.7419 31.22C61.6112 30.8467 61.4992 30.5013 61.4059 30.184C61.3312 29.848 61.2566 29.512 61.1819 29.176H61.0419C60.9672 29.512 60.8832 29.848 60.7899 30.184C60.7152 30.5013 60.6126 30.8467 60.4819 31.22L59.1099 35H63.0859ZM82.421 35.7C82.421 36.9507 82.1503 38.0707 81.609 39.06C81.0863 40.0493 80.3583 40.8333 79.425 41.412C78.5103 41.972 77.4463 42.252 76.233 42.252C75.1877 42.252 74.3383 42.084 73.685 41.748V47.18H70.101V29.764L73.685 29.596V30.492C74.1143 30.1373 74.5903 29.876 75.113 29.708C75.6357 29.5213 76.233 29.428 76.905 29.428C77.9317 29.428 78.8557 29.68 79.677 30.184C80.517 30.688 81.1797 31.4067 81.665 32.34C82.169 33.2733 82.421 34.3933 82.421 35.7ZM78.725 35.812C78.725 35.14 78.613 34.5613 78.389 34.076C78.165 33.572 77.829 33.1893 77.381 32.928C76.9517 32.648 76.4103 32.508 75.757 32.508C74.9543 32.508 74.2637 32.7227 73.685 33.152V38.836C73.9277 38.9293 74.2077 39.0133 74.525 39.088C74.861 39.144 75.2063 39.172 75.561 39.172C76.2143 39.172 76.7743 39.0413 77.241 38.78C77.7077 38.5 78.0717 38.108 78.333 37.604C78.5943 37.0813 78.725 36.484 78.725 35.812ZM95.7998 35.7C95.7998 36.9507 95.5291 38.0707 94.9878 39.06C94.4651 40.0493 93.7371 40.8333 92.8038 41.412C91.8891 41.972 90.8251 42.252 89.6117 42.252C88.5664 42.252 87.7171 42.084 87.0638 41.748V47.18H83.4797V29.764L87.0638 29.596V30.492C87.4931 30.1373 87.9691 29.876 88.4918 29.708C89.0144 29.5213 89.6118 29.428 90.2838 29.428C91.3104 29.428 92.2344 29.68 93.0558 30.184C93.8958 30.688 94.5584 31.4067 95.0437 32.34C95.5478 33.2733 95.7998 34.3933 95.7998 35.7ZM92.1038 35.812C92.1038 35.14 91.9918 34.5613 91.7678 34.076C91.5438 33.572 91.2078 33.1893 90.7598 32.928C90.3304 32.648 89.7891 32.508 89.1358 32.508C88.3331 32.508 87.6424 32.7227 87.0638 33.152V38.836C87.3064 38.9293 87.5864 39.0133 87.9038 39.088C88.2397 39.144 88.5851 39.172 88.9398 39.172C89.5931 39.172 90.1531 39.0413 90.6198 38.78C91.0864 38.5 91.4504 38.108 91.7118 37.604C91.9731 37.0813 92.1038 36.484 92.1038 35.812ZM105.37 30.044L104.839 32.956C104.447 32.7693 103.961 32.62 103.382 32.508C102.822 32.3773 102.253 32.312 101.674 32.312C101.152 32.312 100.76 32.396 100.498 32.564C100.256 32.732 100.134 32.956 100.134 33.236C100.134 33.46 100.274 33.656 100.554 33.824C100.834 33.9733 101.189 34.1133 101.618 34.244C102.066 34.3747 102.533 34.5333 103.019 34.72C103.522 34.9067 103.989 35.14 104.418 35.42C104.866 35.7 105.221 36.0733 105.483 36.54C105.762 36.988 105.902 37.5573 105.902 38.248C105.902 38.9573 105.725 39.62 105.37 40.236C105.034 40.8333 104.474 41.3187 103.69 41.692C102.925 42.0653 101.926 42.252 100.694 42.252C99.8545 42.252 99.0332 42.1587 98.2305 41.972C97.4465 41.7853 96.8118 41.5427 96.3265 41.244L96.5505 38.22C97.0172 38.5187 97.6238 38.7893 98.3705 39.032C99.1358 39.256 99.8918 39.368 100.638 39.368C101.702 39.368 102.234 39.0507 102.234 38.416C102.234 38.1733 102.094 37.9773 101.814 37.828C101.534 37.6787 101.18 37.5387 100.75 37.408C100.321 37.2587 99.8545 37.0907 99.3505 36.904C98.8465 36.7173 98.3798 36.484 97.9505 36.204C97.5212 35.9053 97.1665 35.532 96.8865 35.084C96.6065 34.636 96.4665 34.0667 96.4665 33.376C96.4665 32.6293 96.6718 31.9667 97.0825 31.388C97.5118 30.7907 98.1185 30.3147 98.9025 29.96C99.6865 29.6053 100.62 29.428 101.702 29.428C102.43 29.428 103.121 29.484 103.774 29.596C104.428 29.6893 104.96 29.8387 105.37 30.044ZM116.921 30.52L116.137 33.768C115.82 33.4507 115.4 33.1893 114.877 32.984C114.355 32.7787 113.813 32.676 113.253 32.676C112.637 32.676 112.077 32.8067 111.573 33.068C111.088 33.3107 110.705 33.6653 110.425 34.132C110.164 34.5987 110.033 35.1587 110.033 35.812C110.033 36.484 110.173 37.0627 110.453 37.548C110.733 38.0333 111.135 38.3973 111.657 38.64C112.199 38.8827 112.824 39.004 113.533 39.004C114.168 39.004 114.765 38.9107 115.325 38.724C115.904 38.5373 116.417 38.2947 116.865 37.996L117.005 41.188C116.483 41.5053 115.885 41.7667 115.213 41.972C114.541 42.1587 113.785 42.252 112.945 42.252C111.769 42.252 110.677 42 109.669 41.496C108.661 40.992 107.849 40.264 107.233 39.312C106.636 38.3413 106.337 37.1747 106.337 35.812C106.337 34.58 106.627 33.488 107.205 32.536C107.784 31.5653 108.568 30.8093 109.557 30.268C110.547 29.708 111.648 29.428 112.861 29.428C113.757 29.428 114.541 29.5307 115.213 29.736C115.904 29.9227 116.473 30.184 116.921 30.52ZM129.797 42H126.213V34.636C126.213 33.908 126.017 33.3853 125.625 33.068C125.252 32.7507 124.757 32.592 124.141 32.592C123.731 32.592 123.311 32.6667 122.881 32.816C122.452 32.9467 122.041 33.1333 121.649 33.376V42H118.065V24.416L121.649 24.248V30.744C122.247 30.296 122.872 29.9693 123.525 29.764C124.179 29.54 124.851 29.428 125.541 29.428C126.829 29.428 127.856 29.792 128.621 30.52C129.405 31.2293 129.797 32.3493 129.797 33.88V42ZM144.208 35.84C144.208 37.072 143.919 38.1733 143.34 39.144C142.78 40.1147 141.996 40.88 140.988 41.44C139.98 41.9813 138.832 42.252 137.544 42.252C136.256 42.252 135.108 41.9813 134.1 41.44C133.092 40.88 132.299 40.1147 131.72 39.144C131.16 38.1733 130.88 37.072 130.88 35.84C130.88 34.5893 131.16 33.488 131.72 32.536C132.299 31.5653 133.092 30.8093 134.1 30.268C135.108 29.708 136.256 29.428 137.544 29.428C138.832 29.428 139.98 29.708 140.988 30.268C141.996 30.8093 142.78 31.5653 143.34 32.536C143.919 33.488 144.208 34.5893 144.208 35.84ZM140.512 35.84C140.512 35.1867 140.381 34.6173 140.12 34.132C139.859 33.628 139.504 33.2453 139.056 32.984C138.608 32.704 138.104 32.564 137.544 32.564C136.984 32.564 136.48 32.704 136.032 32.984C135.584 33.2453 135.229 33.628 134.968 34.132C134.707 34.6173 134.576 35.1867 134.576 35.84C134.576 36.4933 134.707 37.072 134.968 37.576C135.229 38.0613 135.584 38.444 136.032 38.724C136.499 38.9853 137.003 39.116 137.544 39.116C138.123 39.116 138.636 38.9853 139.084 38.724C139.532 38.444 139.877 38.0613 140.12 37.576C140.381 37.072 140.512 36.4933 140.512 35.84ZM164.303 29.68L160.663 42H156.855L155.399 37.66C155.138 36.764 154.923 36.0453 154.755 35.504C154.587 34.944 154.447 34.4307 154.335 33.964H154.195C154.102 34.4307 153.962 34.944 153.775 35.504C153.607 36.0453 153.392 36.764 153.131 37.66L151.675 42H147.867L144.227 29.764L147.839 29.596L149.491 35.476C149.584 35.868 149.678 36.3347 149.771 36.876C149.883 37.3987 149.967 37.884 150.023 38.332H150.163C150.219 37.884 150.312 37.3987 150.443 36.876C150.574 36.3347 150.695 35.868 150.807 35.476L152.431 30.604H156.239L157.863 35.476C157.975 35.868 158.096 36.3347 158.227 36.876C158.358 37.3987 158.451 37.884 158.507 38.332H158.647C158.703 37.884 158.778 37.3987 158.871 36.876C158.983 36.3347 159.086 35.868 159.179 35.476L160.775 29.68H164.303Z" fill="#A0E4FF"/>
<path d="M48.4377 78H43.5601L41.8427 73.0194H34.6637L32.9119 78H28.2748L35.6942 57.5966H41.0183L48.4377 78ZM40.6748 69.4127L39.0261 64.7756C38.8658 64.3176 38.7284 63.894 38.6139 63.5047C38.5223 63.0925 38.4307 62.6803 38.3391 62.2681H38.1673C38.0757 62.6803 37.9727 63.0925 37.8582 63.5047C37.7666 63.894 37.6407 64.3176 37.4804 64.7756L35.7972 69.4127H40.6748ZM64.2568 78H59.8601V68.9662C59.8601 68.0731 59.6426 67.4319 59.2075 67.0426C58.7724 66.6533 58.177 66.4587 57.4214 66.4587C56.9176 66.4587 56.4023 66.5503 55.8756 66.7335C55.349 66.8938 54.8452 67.1228 54.3643 67.4205V78H49.9676V62.9894L54.3643 62.7833V64.1917C55.0971 63.6421 55.8413 63.2413 56.597 62.9894C57.3756 62.7146 58.1885 62.5772 59.0358 62.5772C60.6158 62.5772 61.8753 63.0238 62.8142 63.9169C63.7759 64.787 64.2568 66.161 64.2568 68.0388V78ZM86.6847 78H82.5284V76.8321C81.9788 77.2672 81.3147 77.6222 80.5362 77.897C79.7576 78.1717 78.8989 78.3091 77.96 78.3091C76.2883 78.3091 75.006 77.9084 74.1129 77.1069C73.2427 76.3054 72.8076 75.1948 72.8076 73.7751C72.8076 72.2408 73.3457 71.0844 74.422 70.3058C75.4983 69.5043 76.9524 69.1036 78.7844 69.1036C79.4484 69.1036 80.1125 69.1608 80.7766 69.2753C81.4407 69.3898 81.9788 69.5387 82.391 69.7219V68.8975C82.391 68.0044 82.1048 67.3747 81.5323 67.0083C80.9827 66.619 80.1125 66.4243 78.9218 66.4243C78.0745 66.4243 77.2043 66.5274 76.3112 66.7335C75.441 66.9396 74.7426 67.2029 74.2159 67.5235L74.0442 63.6764C74.7541 63.3329 75.5899 63.0696 76.5517 62.8864C77.5363 62.6803 78.5439 62.5772 79.5744 62.5772C81.8643 62.5772 83.6161 63.0696 84.8298 64.0543C86.0664 65.016 86.6847 66.5388 86.6847 68.6227V78ZM82.391 74.4964V72.3324C82.0704 72.1721 81.6697 72.0462 81.1888 71.9546C80.7308 71.863 80.2843 71.8172 79.8492 71.8172C78.979 71.8172 78.3149 71.9775 77.8569 72.298C77.3989 72.5957 77.1699 73.0652 77.1699 73.7064C77.1699 74.3017 77.3646 74.7368 77.7539 75.0116C78.1432 75.2635 78.7157 75.3895 79.4713 75.3895C79.998 75.3895 80.5362 75.3093 81.0857 75.149C81.6353 74.9658 82.0704 74.7483 82.391 74.4964ZM112.584 62.8864L108.119 78H103.447L101.661 72.6759C101.341 71.5767 101.077 70.6951 100.871 70.031C100.665 69.344 100.493 68.7143 100.356 68.1418H100.184C100.07 68.7143 99.8979 69.344 99.6689 70.031C99.4628 70.6951 99.1995 71.5767 98.8789 72.6759L97.0927 78H92.4212L87.9558 62.9894L92.3869 62.7833L94.4135 69.9967C94.528 70.4775 94.6425 71.05 94.757 71.7141C94.8944 72.3553 94.9974 72.9507 95.0661 73.5003H95.2379C95.3066 72.9507 95.421 72.3553 95.5813 71.7141C95.7416 71.05 95.8905 70.4775 96.0279 69.9967L98.0201 64.0199H102.692L104.684 69.9967C104.821 70.4775 104.97 71.05 105.13 71.7141C105.291 72.3553 105.405 72.9507 105.474 73.5003H105.646C105.714 72.9507 105.806 72.3553 105.92 71.7141C106.058 71.05 106.184 70.4775 106.298 69.9967L108.256 62.8864H112.584ZM137.767 78H133.37V68.9662C133.37 68.8517 133.359 68.7486 133.336 68.657C133.313 68.5654 133.29 68.4738 133.267 68.3822C133.198 67.6953 132.969 67.2029 132.58 66.9052C132.191 66.6075 131.687 66.4587 131.069 66.4587C131.046 66.4587 131.012 66.4701 130.966 66.493C130.92 66.493 130.886 66.493 130.863 66.493C130.428 66.5159 129.97 66.6075 129.489 66.7678C129.031 66.9281 128.584 67.1457 128.149 67.4205C128.172 67.6266 128.183 67.8327 128.183 68.0388C128.206 68.2449 128.218 68.4624 128.218 68.6914V78H123.855V68.9662C123.855 68.8517 123.844 68.7486 123.821 68.657C123.798 68.5654 123.775 68.4738 123.752 68.3822C123.684 67.6953 123.455 67.2029 123.065 66.9052C122.676 66.6075 122.172 66.4587 121.554 66.4587C121.119 66.4587 120.638 66.5503 120.111 66.7335C119.608 66.8938 119.138 67.1228 118.703 67.4205V78H114.306V62.9894L118.703 62.7833V64.1917C119.207 63.8024 119.711 63.4932 120.214 63.2642C120.741 63.0123 121.256 62.852 121.76 62.7833C122.356 62.6459 122.985 62.6116 123.649 62.6803C124.474 62.7261 125.218 62.9207 125.882 63.2642C126.546 63.6077 127.073 64.123 127.462 64.8099C128.264 64.0314 129.088 63.4703 129.935 63.1268C130.805 62.7604 131.687 62.5772 132.58 62.5772C134.114 62.5772 135.362 63.0238 136.324 63.9169C137.286 64.787 137.767 66.161 137.767 68.0388V78ZM153.648 78H149.492V76.8321C148.942 77.2672 148.278 77.6222 147.499 77.897C146.721 78.1717 145.862 78.3091 144.923 78.3091C143.252 78.3091 141.969 77.9084 141.076 77.1069C140.206 76.3054 139.771 75.1948 139.771 73.7751C139.771 72.2408 140.309 71.0844 141.385 70.3058C142.462 69.5043 143.916 69.1036 145.748 69.1036C146.412 69.1036 147.076 69.1608 147.74 69.2753C148.404 69.3898 148.942 69.5387 149.354 69.7219V68.8975C149.354 68.0044 149.068 67.3747 148.496 67.0083C147.946 66.619 147.076 66.4243 145.885 66.4243C145.038 66.4243 144.168 66.5274 143.275 66.7335C142.404 66.9396 141.706 67.2029 141.179 67.5235L141.008 63.6764C141.717 63.3329 142.553 63.0696 143.515 62.8864C144.5 62.6803 145.507 62.5772 146.538 62.5772C148.828 62.5772 150.579 63.0696 151.793 64.0543C153.03 65.016 153.648 66.5388 153.648 68.6227V78ZM149.354 74.4964V72.3324C149.034 72.1721 148.633 72.0462 148.152 71.9546C147.694 71.863 147.248 71.8172 146.813 71.8172C145.942 71.8172 145.278 71.9775 144.82 72.298C144.362 72.5957 144.133 73.0652 144.133 73.7064C144.133 74.3017 144.328 74.7368 144.717 75.0116C145.107 75.2635 145.679 75.3895 146.435 75.3895C146.961 75.3895 147.499 75.3093 148.049 75.149C148.599 74.9658 149.034 74.7483 149.354 74.4964ZM155.735 78V74.2559L163.12 66.6648H156.147V62.8864H168.341V66.6304L160.99 74.2216H168.753V78H155.735ZM173.205 55.9479C173.892 55.9479 174.453 56.1769 174.888 56.6349C175.323 57.0699 175.541 57.6195 175.541 58.2836C175.541 58.9706 175.323 59.5431 174.888 60.0011C174.453 60.4362 173.892 60.6537 173.205 60.6537C172.495 60.6537 171.9 60.4362 171.419 60.0011C170.961 59.5431 170.732 58.9706 170.732 58.2836C170.732 57.6195 170.961 57.0699 171.419 56.6349C171.9 56.1769 172.495 55.9479 173.205 55.9479ZM175.335 62.7833V78H170.938V62.9894L175.335 62.7833ZM192.532 78H188.135V68.9662C188.135 68.0731 187.918 67.4319 187.483 67.0426C187.048 66.6533 186.452 66.4587 185.697 66.4587C185.193 66.4587 184.677 66.5503 184.151 66.7335C183.624 66.8938 183.12 67.1228 182.639 67.4205V78H178.243V62.9894L182.639 62.7833V64.1917C183.372 63.6421 184.116 63.2413 184.872 62.9894C185.651 62.7146 186.464 62.5772 187.311 62.5772C188.891 62.5772 190.15 63.0238 191.089 63.9169C192.051 64.787 192.532 66.161 192.532 68.0388V78ZM209.526 62.3712L209.492 65.7717H207.225C207.454 66.0694 207.625 66.4129 207.74 66.8022C207.877 67.1686 207.946 67.5579 207.946 67.9701C207.946 69.5501 207.396 70.821 206.297 71.7828C205.198 72.7217 203.698 73.2369 201.797 73.3285L200.217 74.8742C200.492 74.8284 200.813 74.7941 201.179 74.7712C201.546 74.7254 201.912 74.7025 202.278 74.7025C202.645 74.6796 202.931 74.6681 203.137 74.6681C205.267 74.6681 206.893 75.0803 208.015 75.9047C209.16 76.7062 209.732 77.8741 209.732 79.4083C209.732 80.9197 209.102 82.1677 207.843 83.1524C206.606 84.1599 204.603 84.6637 201.832 84.6637C200.229 84.6637 198.729 84.5149 197.332 84.2172C195.958 83.9195 194.847 83.5188 194 83.015L194.344 79.2366C194.825 79.5801 195.477 79.8892 196.302 80.164C197.126 80.4388 198.042 80.6563 199.049 80.8166C200.08 80.9998 201.088 81.0914 202.072 81.0914C203.057 81.0914 203.801 81.0227 204.305 80.8853C204.809 80.7708 205.164 80.5876 205.37 80.3357C205.576 80.1067 205.679 79.8205 205.679 79.477C205.679 78.9503 205.416 78.5725 204.889 78.3435C204.385 78.1374 203.435 78.0343 202.038 78.0343C201.191 78.0343 200.286 78.0687 199.324 78.1374C198.362 78.2061 197.538 78.3206 196.851 78.4809V75.4238L199.29 73.1224C197.824 72.8476 196.691 72.2408 195.889 71.3019C195.088 70.363 194.687 69.2524 194.687 67.9701C194.687 66.8709 194.95 65.9206 195.477 65.1191C196.027 64.3176 196.794 63.6993 197.779 63.2642C198.786 62.8062 199.965 62.5772 201.317 62.5772C202.255 62.5772 203.126 62.7032 203.927 62.9551L209.526 62.3712ZM203.927 67.9701C203.927 67.2602 203.687 66.6762 203.206 66.2183C202.748 65.7603 202.118 65.5313 201.317 65.5313C200.492 65.5313 199.839 65.7603 199.359 66.2183C198.901 66.6762 198.672 67.2602 198.672 67.9701C198.672 68.657 198.901 69.2295 199.359 69.6875C199.839 70.1455 200.492 70.3745 201.317 70.3745C202.118 70.3745 202.748 70.157 203.206 69.7219C203.687 69.2639 203.927 68.6799 203.927 67.9701ZM236.657 78H231.78L230.062 73.0194H222.883L221.132 78H216.495L223.914 57.5966H229.238L236.657 78ZM228.895 69.4127L227.246 64.7756C227.085 64.3176 226.948 63.894 226.834 63.5047C226.742 63.0925 226.65 62.6803 226.559 62.2681H226.387C226.295 62.6803 226.192 63.0925 226.078 63.5047C225.986 63.894 225.86 64.3176 225.7 64.7756L224.017 69.4127H228.895ZM254.057 64.6038C254.057 66.1152 253.713 67.3976 253.026 68.4509C252.362 69.5043 251.389 70.2943 250.106 70.821C248.824 71.3477 247.278 71.6111 245.469 71.6111H243.065V78H238.496V57.5966H245.504C247.313 57.5966 248.847 57.8714 250.106 58.421C251.389 58.9706 252.362 59.7606 253.026 60.7911C253.713 61.8216 254.057 63.0925 254.057 64.6038ZM249.488 64.6038C249.488 63.8482 249.316 63.2299 248.973 62.749C248.652 62.2681 248.183 61.9132 247.565 61.6842C246.969 61.4552 246.248 61.3407 245.401 61.3407H243.065V67.867H245.401C246.248 67.867 246.969 67.7525 247.565 67.5235C248.183 67.2945 248.652 66.9396 248.973 66.4587C249.316 65.9778 249.488 65.3595 249.488 64.6038ZM261.104 57.5966V78H256.535V57.5966H261.104ZM53.1092 91.8864L48.6438 107H43.9723L42.1862 101.676C41.8656 100.577 41.6022 99.6951 41.3962 99.031C41.1901 98.344 41.0183 97.7143 40.8809 97.1418H40.7092C40.5947 97.7143 40.4229 98.344 40.1939 99.031C39.9878 99.6951 39.7245 100.577 39.4039 101.676L37.6178 107H32.9463L28.4809 91.9894L32.9119 91.7833L34.9385 98.9967C35.053 99.4775 35.1675 100.05 35.282 100.714C35.4194 101.355 35.5225 101.951 35.5912 102.5H35.7629C35.8316 101.951 35.9461 101.355 36.1064 100.714C36.2667 100.05 36.4155 99.4775 36.5529 98.9967L38.5452 93.0199H43.2167L45.2089 98.9967C45.3463 99.4775 45.4951 100.05 45.6554 100.714C45.8157 101.355 45.9302 101.951 45.9989 102.5H46.1707C46.2394 101.951 46.331 101.355 46.4455 100.714C46.5829 100.05 46.7088 99.4775 46.8233 98.9967L48.7812 91.8864H53.1092ZM64.4492 91.749L64.2775 95.9739C64.1401 95.9052 63.8997 95.8365 63.5562 95.7678C63.2356 95.6991 62.9264 95.6648 62.6287 95.6648C62.0105 95.6648 61.4036 95.7793 60.8082 96.0083C60.2358 96.2144 59.7091 96.5006 59.2282 96.867V107H54.8315V91.9894L59.2282 91.7833V93.5695C59.8923 92.8825 60.5678 92.3787 61.2548 92.0581C61.9647 91.7375 62.6974 91.5772 63.4531 91.5772C63.6134 91.5772 63.7852 91.5887 63.9684 91.6116C64.1744 91.6345 64.3347 91.6803 64.4492 91.749ZM79.1118 107H74.9555V105.832C74.4059 106.267 73.7418 106.622 72.9633 106.897C72.1847 107.172 71.326 107.309 70.3871 107.309C68.7154 107.309 67.4331 106.908 66.54 106.107C65.6698 105.305 65.2347 104.195 65.2347 102.775C65.2347 101.241 65.7728 100.084 66.8491 99.3058C67.9254 98.5043 69.3795 98.1036 71.2115 98.1036C71.8755 98.1036 72.5396 98.1608 73.2037 98.2753C73.8678 98.3898 74.4059 98.5387 74.8181 98.7219V97.8975C74.8181 97.0044 74.5319 96.3747 73.9594 96.0083C73.4098 95.619 72.5396 95.4243 71.3489 95.4243C70.5016 95.4243 69.6314 95.5274 68.7383 95.7335C67.8681 95.9396 67.1697 96.2029 66.643 96.5235L66.4713 92.6764C67.1812 92.3329 68.017 92.0696 68.9788 91.8864C69.9634 91.6803 70.971 91.5772 72.0015 91.5772C74.2914 91.5772 76.0432 92.0696 77.2569 93.0543C78.4935 94.016 79.1118 95.5388 79.1118 97.6227V107ZM74.8181 103.496V101.332C74.4975 101.172 74.0968 101.046 73.6159 100.955C73.1579 100.863 72.7114 100.817 72.2763 100.817C71.4061 100.817 70.742 100.977 70.284 101.298C69.826 101.596 69.597 102.065 69.597 102.706C69.597 103.302 69.7917 103.737 70.181 104.012C70.5703 104.264 71.1428 104.389 71.8984 104.389C72.4251 104.389 72.9633 104.309 73.5128 104.149C74.0624 103.966 74.4975 103.748 74.8181 103.496ZM97.0997 99.2714C97.0997 100.806 96.7676 102.18 96.1036 103.393C95.4624 104.607 94.5693 105.569 93.4243 106.279C92.3023 106.966 90.997 107.309 89.5085 107.309C88.2262 107.309 87.1842 107.103 86.3828 106.691V113.355H81.9861V91.9894L86.3828 91.7833V92.8825C86.9094 92.4474 87.4934 92.1268 88.1346 91.9207C88.7757 91.6917 89.5085 91.5772 90.3329 91.5772C91.5924 91.5772 92.7259 91.8864 93.7335 92.5047C94.7639 93.123 95.5769 94.0046 96.1723 95.1496C96.7905 96.2945 97.0997 97.6685 97.0997 99.2714ZM92.5656 99.4088C92.5656 98.5845 92.4282 97.8746 92.1534 97.2792C91.8786 96.6609 91.4664 96.1915 90.9168 95.8709C90.3902 95.5274 89.7261 95.3556 88.9246 95.3556C87.9399 95.3556 87.0926 95.619 86.3828 96.1457V103.119C86.6805 103.233 87.0239 103.336 87.4132 103.428C87.8254 103.496 88.2491 103.531 88.6842 103.531C89.4856 103.531 90.1726 103.37 90.7451 103.05C91.3176 102.706 91.7641 102.225 92.0847 101.607C92.4053 100.966 92.5656 100.233 92.5656 99.4088ZM114.199 99.2714C114.199 100.806 113.867 102.18 113.203 103.393C112.562 104.607 111.669 105.569 110.524 106.279C109.402 106.966 108.096 107.309 106.608 107.309C105.326 107.309 104.284 107.103 103.482 106.691V113.355H99.0855V91.9894L103.482 91.7833V92.8825C104.009 92.4474 104.593 92.1268 105.234 91.9207C105.875 91.6917 106.608 91.5772 107.432 91.5772C108.692 91.5772 109.825 91.8864 110.833 92.5047C111.863 93.123 112.676 94.0046 113.272 95.1496C113.89 96.2945 114.199 97.6685 114.199 99.2714ZM109.665 99.4088C109.665 98.5845 109.528 97.8746 109.253 97.2792C108.978 96.6609 108.566 96.1915 108.016 95.8709C107.49 95.5274 106.825 95.3556 106.024 95.3556C105.039 95.3556 104.192 95.619 103.482 96.1457V103.119C103.78 103.233 104.123 103.336 104.513 103.428C104.925 103.496 105.348 103.531 105.784 103.531C106.585 103.531 107.272 103.37 107.845 103.05C108.417 102.706 108.864 102.225 109.184 101.607C109.505 100.966 109.665 100.233 109.665 99.4088ZM129.581 100.508H119.895C120.032 101.126 120.307 101.664 120.719 102.122C121.154 102.558 121.704 102.89 122.368 103.119C123.055 103.348 123.856 103.462 124.772 103.462C125.551 103.462 126.387 103.359 127.28 103.153C128.173 102.924 128.906 102.638 129.478 102.294L129.65 106.038C129.054 106.45 128.253 106.771 127.245 107C126.261 107.206 125.333 107.309 124.463 107.309C122.517 107.309 120.845 106.989 119.448 106.347C118.074 105.683 117.032 104.756 116.322 103.565C115.635 102.374 115.292 100.977 115.292 99.3745C115.292 97.7944 115.612 96.4319 116.254 95.287C116.918 94.1191 117.822 93.2146 118.967 92.5734C120.135 91.9093 121.44 91.5772 122.883 91.5772C124.211 91.5772 125.39 91.8406 126.421 92.3673C127.474 92.894 128.287 93.6611 128.86 94.6687C129.455 95.6533 129.753 96.8441 129.753 98.241C129.753 98.5387 129.73 98.9051 129.684 99.3401C129.661 99.7523 129.627 100.142 129.581 100.508ZM122.917 94.7374C122.024 94.7374 121.291 95.0351 120.719 95.6304C120.169 96.2258 119.837 97.0159 119.723 98.0005H125.665C125.665 97.9547 125.665 97.886 125.665 97.7944C125.665 97.6799 125.665 97.5998 125.665 97.554C125.665 96.7067 125.413 96.0312 124.91 95.5274C124.429 95.0007 123.765 94.7374 122.917 94.7374ZM141.594 91.749L141.422 95.9739C141.285 95.9052 141.044 95.8365 140.701 95.7678C140.38 95.6991 140.071 95.6648 139.773 95.6648C139.155 95.6648 138.548 95.7793 137.953 96.0083C137.38 96.2144 136.854 96.5006 136.373 96.867V107H131.976V91.9894L136.373 91.7833V93.5695C137.037 92.8825 137.712 92.3787 138.399 92.0581C139.109 91.7375 139.842 91.5772 140.598 91.5772C140.758 91.5772 140.93 91.5887 141.113 91.6116C141.319 91.6345 141.479 91.6803 141.594 91.749ZM159.114 85.4631L158.942 89.2415C158.782 89.1728 158.564 89.127 158.29 89.1041C158.038 89.0812 157.797 89.0698 157.568 89.0698C156.744 89.0698 156.114 89.253 155.679 89.6193C155.244 89.9857 155.027 90.5926 155.027 91.4399V91.8864H158.771L158.461 95.6648H155.027V107H150.63V95.6648H148.569V91.8864H150.63V91.3712C150.63 89.356 151.214 87.8332 152.382 86.8027C153.55 85.7493 155.118 85.2227 157.087 85.2227C157.408 85.2227 157.763 85.2456 158.152 85.2914C158.542 85.3372 158.862 85.3944 159.114 85.4631ZM175.888 99.4432C175.888 100.955 175.533 102.306 174.823 103.496C174.136 104.687 173.174 105.626 171.938 106.313C170.701 106.977 169.293 107.309 167.713 107.309C166.133 107.309 164.724 106.977 163.488 106.313C162.251 105.626 161.278 104.687 160.568 103.496C159.881 102.306 159.538 100.955 159.538 99.4432C159.538 97.9089 159.881 96.5579 160.568 95.39C161.278 94.1992 162.251 93.2718 163.488 92.6077C164.724 91.9207 166.133 91.5772 167.713 91.5772C169.293 91.5772 170.701 91.9207 171.938 92.6077C173.174 93.2718 174.136 94.1992 174.823 95.39C175.533 96.5579 175.888 97.9089 175.888 99.4432ZM171.354 99.4432C171.354 98.6417 171.194 97.9433 170.873 97.3479C170.552 96.7296 170.117 96.2602 169.568 95.9396C169.018 95.5961 168.4 95.4243 167.713 95.4243C167.026 95.4243 166.408 95.5961 165.858 95.9396C165.308 96.2602 164.873 96.7296 164.553 97.3479C164.232 97.9433 164.072 98.6417 164.072 99.4432C164.072 100.245 164.232 100.955 164.553 101.573C164.873 102.168 165.308 102.638 165.858 102.981C166.431 103.302 167.049 103.462 167.713 103.462C168.423 103.462 169.052 103.302 169.602 102.981C170.152 102.638 170.575 102.168 170.873 101.573C171.194 100.955 171.354 100.245 171.354 99.4432ZM187.483 91.749L187.312 95.9739C187.174 95.9052 186.934 95.8365 186.59 95.7678C186.27 95.6991 185.961 95.6648 185.663 95.6648C185.045 95.6648 184.438 95.7793 183.842 96.0083C183.27 96.2144 182.743 96.5006 182.262 96.867V107H177.866V91.9894L182.262 91.7833V93.5695C182.926 92.8825 183.602 92.3787 184.289 92.0581C184.999 91.7375 185.732 91.5772 186.487 91.5772C186.648 91.5772 186.819 91.5887 187.003 91.6116C187.209 91.6345 187.369 91.6803 187.483 91.749Z" fill="white"/>
<path d="M214.518 107H209.641L207.923 102.019H200.744L198.993 107H194.355L201.775 86.5966H207.099L214.518 107ZM206.755 98.4127L205.107 93.7756C204.946 93.3176 204.809 92.894 204.695 92.5047C204.603 92.0925 204.511 91.6803 204.42 91.2681H204.248C204.156 91.6803 204.053 92.0925 203.939 92.5047C203.847 92.894 203.721 93.3176 203.561 93.7756L201.878 98.4127H206.755ZM231.162 99.2714C231.162 100.806 230.83 102.18 230.166 103.393C229.525 104.607 228.631 105.569 227.487 106.279C226.364 106.966 225.059 107.309 223.571 107.309C222.288 107.309 221.246 107.103 220.445 106.691V113.355H216.048V91.9894L220.445 91.7833V92.8825C220.972 92.4474 221.556 92.1268 222.197 91.9207C222.838 91.6917 223.571 91.5772 224.395 91.5772C225.655 91.5772 226.788 91.8864 227.796 92.5047C228.826 93.123 229.639 94.0046 230.234 95.1496C230.853 96.2945 231.162 97.6685 231.162 99.2714ZM226.628 99.4088C226.628 98.5845 226.49 97.8746 226.216 97.2792C225.941 96.6609 225.529 96.1915 224.979 95.8709C224.452 95.5274 223.788 95.3556 222.987 95.3556C222.002 95.3556 221.155 95.619 220.445 96.1457V103.119C220.743 103.233 221.086 103.336 221.475 103.428C221.888 103.496 222.311 103.531 222.746 103.531C223.548 103.531 224.235 103.37 224.807 103.05C225.38 102.706 225.826 102.225 226.147 101.607C226.467 100.966 226.628 100.233 226.628 99.4088ZM248.261 99.2714C248.261 100.806 247.929 102.18 247.265 103.393C246.624 104.607 245.731 105.569 244.586 106.279C243.464 106.966 242.159 107.309 240.67 107.309C239.388 107.309 238.346 107.103 237.544 106.691V113.355H233.148V91.9894L237.544 91.7833V92.8825C238.071 92.4474 238.655 92.1268 239.296 91.9207C239.937 91.6917 240.67 91.5772 241.495 91.5772C242.754 91.5772 243.887 91.8864 244.895 92.5047C245.926 93.123 246.738 94.0046 247.334 95.1496C247.952 96.2945 248.261 97.6685 248.261 99.2714ZM243.727 99.4088C243.727 98.5845 243.59 97.8746 243.315 97.2792C243.04 96.6609 242.628 96.1915 242.078 95.8709C241.552 95.5274 240.888 95.3556 240.086 95.3556C239.102 95.3556 238.254 95.619 237.544 96.1457V103.119C237.842 103.233 238.186 103.336 238.575 103.428C238.987 103.496 239.411 103.531 239.846 103.531C240.647 103.531 241.334 103.37 241.907 103.05C242.479 102.706 242.926 102.225 243.246 101.607C243.567 100.966 243.727 100.233 243.727 99.4088ZM263.75 87.3867L262.891 91.4399C262.524 91.2109 262.032 91.0162 261.414 90.8559C260.818 90.6956 260.2 90.5697 259.559 90.4781C258.918 90.3636 258.311 90.3063 257.738 90.3063C256.639 90.3063 255.803 90.4666 255.231 90.7872C254.658 91.1078 254.372 91.6001 254.372 92.2642C254.372 92.7222 254.555 93.0886 254.922 93.3634C255.288 93.6382 255.769 93.8786 256.364 94.0847C256.983 94.2908 257.658 94.4969 258.391 94.703C259.124 94.9091 259.857 95.161 260.589 95.4587C261.322 95.7335 261.986 96.0999 262.582 96.5579C263.177 96.993 263.658 97.5654 264.024 98.2753C264.414 98.9623 264.608 99.821 264.608 100.852C264.608 102.821 263.887 104.389 262.444 105.557C261.002 106.725 258.918 107.309 256.193 107.309C254.933 107.309 253.731 107.195 252.586 106.966C251.464 106.737 250.537 106.428 249.804 106.038L250.182 101.779C250.64 102.054 251.201 102.306 251.865 102.535C252.529 102.764 253.25 102.947 254.029 103.084C254.807 103.222 255.574 103.29 256.33 103.29C257.544 103.29 258.448 103.13 259.044 102.809C259.639 102.466 259.937 101.951 259.937 101.264C259.937 100.783 259.742 100.394 259.353 100.096C258.986 99.7981 258.506 99.5462 257.91 99.3401C257.315 99.1341 256.651 98.928 255.918 98.7219C255.185 98.5158 254.452 98.2753 253.72 98.0005C252.987 97.7028 252.311 97.3364 251.693 96.9014C251.098 96.4663 250.617 95.9052 250.25 95.2183C249.884 94.5313 249.701 93.6725 249.701 92.6421C249.701 91.3826 250.01 90.2834 250.628 89.3446C251.269 88.3828 252.185 87.6385 253.376 87.1119C254.567 86.5623 255.987 86.2875 257.635 86.2875C258.299 86.2875 259.009 86.3333 259.765 86.4249C260.521 86.4936 261.242 86.6081 261.929 86.7684C262.639 86.9287 263.246 87.1348 263.75 87.3867ZM278.834 92.9169L277.872 96.9014C277.483 96.5121 276.967 96.1915 276.326 95.9396C275.685 95.6877 275.021 95.5617 274.334 95.5617C273.578 95.5617 272.891 95.722 272.273 96.0426C271.678 96.3403 271.208 96.7754 270.865 97.3479C270.544 97.9204 270.384 98.6074 270.384 99.4088C270.384 100.233 270.555 100.943 270.899 101.538C271.242 102.134 271.735 102.58 272.376 102.878C273.04 103.176 273.807 103.325 274.677 103.325C275.456 103.325 276.189 103.21 276.876 102.981C277.586 102.752 278.215 102.454 278.765 102.088L278.937 106.004C278.295 106.393 277.563 106.714 276.738 106.966C275.914 107.195 274.986 107.309 273.956 107.309C272.513 107.309 271.174 107 269.937 106.382C268.701 105.763 267.704 104.87 266.949 103.702C266.216 102.512 265.85 101.081 265.85 99.4088C265.85 97.8975 266.205 96.5579 266.914 95.39C267.624 94.1992 268.586 93.2718 269.8 92.6077C271.013 91.9207 272.365 91.5772 273.853 91.5772C274.952 91.5772 275.914 91.7032 276.738 91.9551C277.586 92.1841 278.284 92.5047 278.834 92.9169ZM295.316 107H290.919V97.9662C290.919 97.0731 290.679 96.4319 290.198 96.0426C289.74 95.6533 289.133 95.4587 288.378 95.4587C287.874 95.4587 287.359 95.5503 286.832 95.7335C286.305 95.8938 285.801 96.1228 285.32 96.4205V107H280.924V85.4288L285.32 85.2227V93.1917C286.053 92.6421 286.82 92.2413 287.622 91.9894C288.423 91.7146 289.248 91.5772 290.095 91.5772C291.675 91.5772 292.935 92.0238 293.873 92.9169C294.835 93.787 295.316 95.161 295.316 97.0388V107ZM313.682 99.4432C313.682 100.955 313.327 102.306 312.617 103.496C311.93 104.687 310.968 105.626 309.731 106.313C308.495 106.977 307.087 107.309 305.506 107.309C303.926 107.309 302.518 106.977 301.282 106.313C300.045 105.626 299.072 104.687 298.362 103.496C297.675 102.306 297.331 100.955 297.331 99.4432C297.331 97.9089 297.675 96.5579 298.362 95.39C299.072 94.1992 300.045 93.2718 301.282 92.6077C302.518 91.9207 303.926 91.5772 305.506 91.5772C307.087 91.5772 308.495 91.9207 309.731 92.6077C310.968 93.2718 311.93 94.1992 312.617 95.39C313.327 96.5579 313.682 97.9089 313.682 99.4432ZM309.148 99.4432C309.148 98.6417 308.987 97.9433 308.667 97.3479C308.346 96.7296 307.911 96.2602 307.361 95.9396C306.812 95.5961 306.193 95.4243 305.506 95.4243C304.82 95.4243 304.201 95.5961 303.652 95.9396C303.102 96.2602 302.667 96.7296 302.346 97.3479C302.026 97.9433 301.865 98.6417 301.865 99.4432C301.865 100.245 302.026 100.955 302.346 101.573C302.667 102.168 303.102 102.638 303.652 102.981C304.224 103.302 304.842 103.462 305.506 103.462C306.216 103.462 306.846 103.302 307.396 102.981C307.945 102.638 308.369 102.168 308.667 101.573C308.987 100.955 309.148 100.245 309.148 99.4432Z" fill="#A0E4FF"/>
<g style="mix-blend-mode:overlay">
<path fill-rule="evenodd" clip-rule="evenodd" d="M477.798 -3.92365L379 -3.92364V-55L477.798 -55L477.798 -3.92365L529.11 -3.92364V94.7405L477.798 95.3454L477.798 47.5157C451.624 47.9714 430.547 69.211 430.547 95.3454H379C379 40.9038 423.155 -3.46485 477.798 -3.92365Z" fill="#A0E4FF"/>
<path fill-rule="evenodd" clip-rule="evenodd" d="M580.892 94.9329L679.69 94.9293V146.187H580.892V94.9293L529.11 94.7407V-3.92345L580.892 -3.92345V43.6713C607.066 43.2156 628.127 22.211 628.127 -3.92345H679.221C679.221 50.5181 635.536 94.4705 580.892 94.9293V94.9329Z" fill="#069CD8" fill-opacity="0.5"/>
<path fill-rule="evenodd" clip-rule="evenodd" d="M778.489 47.0959L679.221 47.0959V-3.92334L778.489 -3.92334V47.0995L830.036 47.0995V146.187H778.489V98.3574C752.315 98.8132 731.238 120.053 731.238 146.187H679.691C679.691 91.7456 723.845 47.5583 778.489 47.0995V47.0959Z" fill="#A0E4FF" fill-opacity="0.7"/>
</g>
</g>
<rect x="0.5" y="0.5" width="829" height="134" rx="13.5" stroke="url(#paint2_linear_632_6287)" style="mix-blend-mode:overlay"/>
<rect x="0.5" y="0.5" width="829" height="134" rx="13.5" stroke="url(#paint3_linear_632_6287)" stroke-opacity="0.1"/>
<rect x="0.5" y="0.5" width="829" height="134" rx="13.5" stroke="white" stroke-opacity="0.1"/>
<defs>
<radialGradient id="paint0_radial_632_6287" cx="0" cy="0" r="1" gradientUnits="userSpaceOnUse" gradientTransform="translate(9.4458e-07 165.586) rotate(17.7974) scale(413.385 308.037)">
<stop offset="0.100613" stop-color="#A0E4FF" stop-opacity="0"/>
<stop offset="0.515" stop-color="#00B7FF"/>
<stop offset="1" stop-color="#00B7FF" stop-opacity="0.35"/>
</radialGradient>
<radialGradient id="paint1_radial_632_6287" cx="0" cy="0" r="1" gradientUnits="userSpaceOnUse" gradientTransform="translate(1075 -132) rotate(110.154) scale(458.578 1768.11)">
<stop stop-color="#2B8BB1" stop-opacity="0"/>
<stop offset="0.285" stop-color="#2B8BB1"/>
<stop offset="1" stop-color="#2B8BB1" stop-opacity="0.184314"/>
</radialGradient>
<linearGradient id="paint2_linear_632_6287" x1="415" y1="0" x2="415" y2="135" gradientUnits="userSpaceOnUse">
<stop stop-color="white" stop-opacity="0.6"/>
<stop offset="0.5" stop-color="white" stop-opacity="0"/>
<stop offset="1" stop-color="white"/>
</linearGradient>
<linearGradient id="paint3_linear_632_6287" x1="415" y1="0" x2="415" y2="135" gradientUnits="userSpaceOnUse">
<stop stop-color="white" stop-opacity="0.6"/>
<stop offset="0.5" stop-color="white" stop-opacity="0"/>
<stop offset="1" stop-color="white"/>
</linearGradient>
<clipPath id="clip0_632_6287">
<rect width="830" height="135" rx="14" fill="white"/>
</clipPath>
</defs>
</svg>
